<svg width="35" height="20" viewBox="0 0 35 20" fill="none" xmlns="http://www.w3.org/2000/svg">
<path fill-rule="evenodd" clip-rule="evenodd" d="M15.5761 12.6173C15.7309 12.2436 16.0956 12 16.5 12H18.5C18.9045 12 19.2691 12.2436 19.4239 12.6173C19.5787 12.991 19.4931 13.4211 19.2071 13.7071L18.2071 14.7071C17.8166 15.0976 17.1834 15.0976 16.7929 14.7071L15.7929 13.7071C15.5069 13.4211 15.4214 12.991 15.5761 12.6173Z" fill="#696969"/>
<path fill-rule="evenodd" clip-rule="evenodd" d="M11.8226 5.05346C12.3453 5.23157 12.6247 5.79975 12.4466 6.32252L11.1069 10.2548C11.033 10.4717 11.0023 10.6714 11.0113 10.8496C11.2095 14.794 13.93 18 17.5001 18C21.0701 18 23.7906 14.794 23.9888 10.8496C23.9978 10.6714 23.9671 10.4717 23.8932 10.2548L22.5535 6.32252C22.3754 5.79975 22.6548 5.23157 23.1776 5.05346C23.7003 4.87535 24.2685 5.15476 24.4466 5.67753L25.7864 9.60978C25.9247 10.0159 26.0104 10.4707 25.9863 10.95C25.7514 15.6246 22.4408 20 17.5001 20C12.5593 20 9.24874 15.6246 9.01381 10.95C8.98972 10.4707 9.07542 10.0159 9.21378 9.60978L10.5535 5.67753C10.7316 5.15476 11.2998 4.87535 11.8226 5.05346Z" fill="#696969"/>
<path fill-rule="evenodd" clip-rule="evenodd" d="M15.5 2C11.634 2 8.5 5.13401 8.5 9V12C8.5 13.1046 9.39543 14 10.5 14V16C8.29086 16 6.5 14.2091 6.5 12V9C6.5 4.02944 10.5294 0 15.5 0H19.5C24.4706 0 28.5 4.02944 28.5 9V12C28.5 14.2091 26.7091 16 24.5 16C23.9477 16 23.5 15.5523 23.5 15C23.5 14.4477 23.9477 14 24.5 14C25.6046 14 26.5 13.1046 26.5 12V9C26.5 5.13401 23.366 2 19.5 2H15.5Z" fill="#696969"/>
<path fill-rule="evenodd" clip-rule="evenodd" d="M12.5178 11C12.3107 10.6413 12.4336 10.1826 12.7923 9.97546L14.9574 8.72546C15.3161 8.51836 15.7748 8.64126 15.9819 8.99998C16.189 9.3587 16.0661 9.8174 15.7074 10.0245L13.5423 11.2745C13.1836 11.4816 12.7249 11.3587 12.5178 11Z" fill="#696969"/>
<path fill-rule="evenodd" clip-rule="evenodd" d="M19.0178 8.99998C19.2249 8.64126 19.6836 8.51836 20.0423 8.72546L22.2074 9.97546C22.5661 10.1826 22.689 10.6413 22.4819 11C22.2748 11.3587 21.8161 11.4816 21.4574 11.2745L19.2923 10.0245C18.9336 9.8174 18.8107 9.3587 19.0178 8.99998Z" fill="#696969"/>
<path fill-rule="evenodd" clip-rule="evenodd" d="M4.38416 7.67992C4.56094 7.89206 4.53228 8.20734 4.32014 8.38412C3.88685 8.7452 3.36642 9.42294 3.21711 10.2512C3.07417 11.0442 3.25696 12.0498 4.3536 13.1465C4.54886 13.3417 4.54886 13.6583 4.3536 13.8536C4.15834 14.0488 3.84175 14.0488 3.64649 13.8536C2.34313 12.5502 2.02592 11.2225 2.23297 10.0738C2.43367 8.96042 3.11324 8.08816 3.67995 7.6159C3.89209 7.43912 4.20737 7.46778 4.38416 7.67992Z" fill="#696969"/>
<path fill-rule="evenodd" clip-rule="evenodd" d="M30.1161 13.8201C29.9393 13.6079 29.968 13.2927 30.1801 13.1159C30.6134 12.7548 31.1338 12.0771 31.2831 11.2488C31.4261 10.4558 31.2433 9.45018 30.1466 8.35354C29.9514 8.15828 29.9514 7.8417 30.1466 7.64643C30.3419 7.45117 30.6585 7.45117 30.8538 7.64643C32.1571 8.9498 32.4743 10.2775 32.2673 11.4262C32.0666 12.5396 31.387 13.4118 30.8203 13.8841C30.6082 14.0609 30.2929 14.0322 30.1161 13.8201Z" fill="#696969"/>
<path fill-rule="evenodd" clip-rule="evenodd" d="M2.20935 7.67992C2.38613 7.89206 2.35747 8.20734 2.14533 8.38412C1.71204 8.7452 1.19161 9.42294 1.04231 10.2512C0.899362 11.0442 1.08215 12.0498 2.17879 13.1465C2.37406 13.3417 2.37406 13.6583 2.17879 13.8536C1.98353 14.0488 1.66695 14.0488 1.47169 13.8536C0.168325 12.5502 -0.148882 11.2225 0.0581703 10.0738C0.258868 8.96042 0.938436 8.08816 1.50515 7.6159C1.71729 7.43912 2.03257 7.46778 2.20935 7.67992Z" fill="#696969"/>
<path fill-rule="evenodd" clip-rule="evenodd" d="M32.2909 13.8201C32.1141 13.6079 32.1428 13.2927 32.3549 13.1159C32.7882 12.7548 33.3086 12.0771 33.4579 11.2488C33.6009 10.4558 33.4181 9.45018 32.3215 8.35354C32.1262 8.15828 32.1262 7.8417 32.3215 7.64643C32.5167 7.45117 32.8333 7.45117 33.0286 7.64643C34.3319 8.9498 34.6491 10.2775 34.4421 11.4262C34.2414 12.5396 33.5618 13.4118 32.9951 13.8841C32.783 14.0609 32.4677 14.0322 32.2909 13.8201Z" fill="#696969"/>
</svg>
