<svg width="22" height="21" viewBox="0 0 22 21" fill="none" xmlns="http://www.w3.org/2000/svg">
<path fill-rule="evenodd" clip-rule="evenodd" d="M9.07615 12.9175C9.23093 12.5439 9.59557 12.3002 10 12.3002H12C12.4045 12.3002 12.7691 12.5439 12.9239 12.9175C13.0787 13.2912 12.9931 13.7213 12.7071 14.0073L11.7071 15.0073C11.3166 15.3979 10.6834 15.3979 10.2929 15.0073L9.29292 14.0073C9.00692 13.7213 8.92137 13.2912 9.07615 12.9175Z" fill="#696969"/>
<path fill-rule="evenodd" clip-rule="evenodd" d="M5.32256 5.35369C5.84534 5.5318 6.12475 6.09998 5.94664 6.62276L4.60692 10.555C4.53302 10.7719 4.50233 10.9716 4.51129 11.1498C4.70952 15.0942 7.43004 18.3003 11.0001 18.3003C14.5701 18.3003 17.2906 15.0942 17.4888 11.1498C17.4978 10.9716 17.4671 10.7719 17.3932 10.555L16.0535 6.62276C15.8754 6.09998 16.1548 5.5318 16.6776 5.35369C17.2003 5.17558 17.7685 5.45499 17.9466 5.97776L19.2864 9.91001C19.4247 10.3161 19.5104 10.771 19.4863 11.2502C19.2514 15.9248 15.9408 20.3003 11.0001 20.3003C6.05935 20.3003 2.74874 15.9248 2.51381 11.2502C2.48972 10.771 2.57542 10.3161 2.71378 9.91001L4.0535 5.97776C4.2316 5.45499 4.79979 5.17558 5.32256 5.35369Z" fill="#696969"/>
<path fill-rule="evenodd" clip-rule="evenodd" d="M9 2.30023C5.13401 2.30023 2 5.43424 2 9.30023V12.3002C2 13.4048 2.89543 14.3002 4 14.3002V16.3002C1.79086 16.3002 0 14.5094 0 12.3002V9.30023C0 4.32967 4.02944 0.300232 9 0.300232H13C17.9706 0.300232 22 4.32967 22 9.30023V12.3002C22 14.5094 20.2091 16.3002 18 16.3002C17.4477 16.3002 17 15.8525 17 15.3002C17 14.7479 17.4477 14.3002 18 14.3002C19.1046 14.3002 20 13.4048 20 12.3002V9.30023C20 5.43424 16.866 2.30023 13 2.30023H9Z" fill="#696969"/>
<path fill-rule="evenodd" clip-rule="evenodd" d="M6.01807 9.30021C6.22517 8.9415 6.68387 8.81859 7.04259 9.0257L9.20765 10.2757C9.56637 10.4828 9.68927 10.9415 9.48217 11.3002C9.27506 11.6589 8.81637 11.7818 8.45765 11.5747L6.29259 10.3247C5.93387 10.1176 5.81096 9.65893 6.01807 9.30021Z" fill="#696969"/>
<path fill-rule="evenodd" clip-rule="evenodd" d="M12.5181 11.3002C12.311 10.9415 12.4339 10.4828 12.7926 10.2757L14.9576 9.0257C15.3164 8.81859 15.7751 8.9415 15.9822 9.30021C16.1893 9.65893 16.0664 10.1176 15.7076 10.3247L13.5426 11.5747C13.1839 11.7818 12.7252 11.6589 12.5181 11.3002Z" fill="#696969"/>
</svg>
