<svg width="24" height="24" viewBox="0 0 24 24" fill="none" xmlns="http://www.w3.org/2000/svg">
<path fill-rule="evenodd" clip-rule="evenodd" d="M15.2601 0.0506702C15.5222 0.152242 15.7056 0.3919 15.735 0.6715L17.5611 18.0193C17.6045 18.4313 17.3057 18.8004 16.8937 18.8437C16.4818 18.8871 16.1127 18.5883 16.0693 18.1764L14.3961 2.28062L11.3787 4.96274C11.27 5.05938 11.1355 5.12231 10.9917 5.14389L2.5 6.41764V10.6352L8.74491 11.8841C8.95586 11.9263 9.13853 12.0571 9.24651 12.2431C9.35448 12.4292 9.37737 12.6527 9.30934 12.8567L7.48325 18.335C7.35227 18.728 6.92753 18.9403 6.53457 18.8094C6.14161 18.6784 5.92924 18.2536 6.06023 17.8607L7.61765 13.1884L1.60291 11.9854C1.25234 11.9153 1 11.6075 1 11.25V5.77175C1 5.40051 1.2716 5.08512 1.63874 5.03005L10.5488 3.69355L14.4909 0.189457C14.701 0.00267409 14.9979 -0.0509014 15.2601 0.0506702Z" fill="black"/>
<path d="M11.7934 8.05434C11.7934 8.5586 11.3846 8.96738 10.8803 8.96738C10.3761 8.96738 9.96729 8.5586 9.96729 8.05434C9.96729 7.55008 10.3761 7.1413 10.8803 7.1413C11.3846 7.1413 11.7934 7.55008 11.7934 8.05434Z" fill="black"/>
<path fill-rule="evenodd" clip-rule="evenodd" d="M16.9293 12.4565C14.5071 12.4565 12.5435 14.4202 12.5435 16.8424C12.5435 19.2647 14.5071 21.2283 16.9293 21.2283C19.3516 21.2283 21.3152 19.2647 21.3152 16.8424C21.3152 14.4202 19.3516 12.4565 16.9293 12.4565ZM11.0435 16.8424C11.0435 13.5917 13.6787 10.9565 16.9293 10.9565C20.18 10.9565 22.8152 13.5917 22.8152 16.8424C22.8152 20.0931 20.18 22.7283 16.9293 22.7283C13.6787 22.7283 11.0435 20.0931 11.0435 16.8424Z" fill="#202020"/>
<path fill-rule="evenodd" clip-rule="evenodd" d="M20.1652 20.0784C20.4581 19.7855 20.933 19.7855 21.2259 20.0784L23.2802 22.1327C23.5731 22.4256 23.5731 22.9005 23.2802 23.1934C22.9873 23.4863 22.5125 23.4863 22.2196 23.1934L20.1652 21.139C19.8723 20.8461 19.8723 20.3713 20.1652 20.0784Z" fill="#202020"/>
</svg>
