<svg width="24" height="24" viewBox="0 0 24 24" fill="none" xmlns="http://www.w3.org/2000/svg">
<path d="M19 7V6C19 4.34315 17.6569 3 16 3H8C6.34315 3 5 4.34315 5 6V18C5 19.6569 6.34315 21 8 21H16C17.6569 21 19 19.6569 19 18V15.5" stroke="#696969" stroke-width="2" stroke-linecap="round"/>
<path d="M16.5 10H18.5C19.8807 10 21 11.1193 21 12.5C21 13.8807 19.8807 15 18.5 15H16.5C15.1193 15 14 13.8807 14 12.5C14 11.1193 15.1193 10 16.5 10Z" stroke="#696969" stroke-width="2" stroke-linecap="round" stroke-linejoin="round"/>
</svg>
