<svg width="22" height="21" viewBox="0 0 22 21" fill="none" xmlns="http://www.w3.org/2000/svg">
<path fill-rule="evenodd" clip-rule="evenodd" d="M9.07615 12.9175C9.23093 12.5439 9.59557 12.3002 10 12.3002H12C12.4045 12.3002 12.7691 12.5439 12.9239 12.9175C13.0787 13.2912 12.9931 13.7213 12.7071 14.0073L11.7071 15.0073C11.3166 15.3979 10.6834 15.3979 10.2929 15.0073L9.29292 14.0073C9.00692 13.7213 8.92137 13.2912 9.07615 12.9175Z" fill="#696969"/>
<path fill-rule="evenodd" clip-rule="evenodd" d="M5.32256 5.35369C5.84534 5.5318 6.12475 6.09998 5.94664 6.62276L4.60692 10.555C4.53302 10.7719 4.50233 10.9716 4.51129 11.1498C4.70952 15.0942 7.43004 18.3003 11.0001 18.3003C14.5701 18.3003 17.2906 15.0942 17.4888 11.1498C17.4978 10.9716 17.4671 10.7719 17.3932 10.555L16.0535 6.62276C15.8754 6.09998 16.1548 5.5318 16.6776 5.35369C17.2003 5.17558 17.7685 5.45499 17.9466 5.97776L19.2864 9.91001C19.4247 10.3161 19.5104 10.771 19.4863 11.2502C19.2514 15.9248 15.9408 20.3003 11.0001 20.3003C6.05935 20.3003 2.74874 15.9248 2.51381 11.2502C2.48972 10.771 2.57542 10.3161 2.71378 9.91001L4.0535 5.97776C4.2316 5.45499 4.79979 5.17558 5.32256 5.35369Z" fill="#696969"/>
<path fill-rule="evenodd" clip-rule="evenodd" d="M9 2.30023C5.13401 2.30023 2 5.43424 2 9.30023V12.3002C2 13.4048 2.89543 14.3002 4 14.3002V16.3002C1.79086 16.3002 0 14.5094 0 12.3002V9.30023C0 4.32967 4.02944 0.300232 9 0.300232H13C17.9706 0.300232 22 4.32967 22 9.30023V12.3002C22 14.5094 20.2091 16.3002 18 16.3002C17.4477 16.3002 17 15.8525 17 15.3002C17 14.7479 17.4477 14.3002 18 14.3002C19.1046 14.3002 20 13.4048 20 12.3002V9.30023C20 5.43424 16.866 2.30023 13 2.30023H9Z" fill="#696969"/>
<path d="M13.5 12.3002L13.2825 12.0844C12.51 11.3209 12 10.8158 12 10.1994C12 9.69424 12.363 9.30023 12.825 9.30023C13.086 9.30023 13.3365 9.43266 13.5 9.64029C13.6635 9.43266 13.914 9.30023 14.175 9.30023C14.637 9.30023 15 9.69424 15 10.1994C15 10.8158 14.49 11.3209 13.7175 12.0844L13.5 12.3002Z" fill="#696969"/>
<path d="M8.5 12.3002L8.2825 12.0844C7.51 11.3209 7 10.8158 7 10.1994C7 9.69424 7.363 9.30023 7.825 9.30023C8.086 9.30023 8.3365 9.43266 8.5 9.64029C8.6635 9.43266 8.914 9.30023 9.175 9.30023C9.637 9.30023 10 9.69424 10 10.1994C10 10.8158 9.49 11.3209 8.7175 12.0844L8.5 12.3002Z" fill="#696969"/>
</svg>
