<svg width="24" height="22" viewBox="0 0 24 22" fill="none" xmlns="http://www.w3.org/2000/svg">
<path fill-rule="evenodd" clip-rule="evenodd" d="M9.60303 13.8333C9.7668 13.4325 10.1526 13.1711 10.5806 13.1711H12.6967C13.1246 13.1711 13.5104 13.4325 13.6742 13.8333C13.838 14.2341 13.7474 14.6954 13.4448 15.0021L12.3868 16.0747C11.9736 16.4936 11.3037 16.4936 10.8905 16.0747L9.83239 15.0021C9.52979 14.6954 9.43926 14.2341 9.60303 13.8333Z" fill="#696969"/>
<path fill-rule="evenodd" clip-rule="evenodd" d="M5.63163 5.72044C6.18476 5.91148 6.48039 6.52089 6.29194 7.08161L4.87444 11.2993C4.79625 11.5319 4.76378 11.7461 4.77325 11.9372C4.98299 16.1679 7.86147 19.6066 11.6388 19.6066C15.4161 19.6066 18.2946 16.1679 18.5043 11.9372C18.5138 11.7461 18.4813 11.5319 18.4031 11.2993L16.9856 7.08161C16.7972 6.52089 17.0928 5.91148 17.6459 5.72044C18.1991 5.5294 18.8002 5.82909 18.9887 6.38981L20.4062 10.6074C20.5526 11.043 20.6432 11.5309 20.6178 12.0449C20.3692 17.0588 16.8664 21.7518 11.6388 21.7518C6.41119 21.7518 2.90837 17.0588 2.65979 12.0449C2.63431 11.5309 2.72498 11.043 2.87138 10.6074L4.28888 6.38981C4.47733 5.82909 5.0785 5.5294 5.63163 5.72044Z" fill="#696969"/>
<path fill-rule="evenodd" clip-rule="evenodd" d="M9.52255 2.44539C5.43209 2.44539 2.11612 5.80685 2.11612 9.95342V13.1712C2.11612 14.3559 3.06354 15.3163 4.23224 15.3163V17.4615C1.89484 17.4615 0 15.5406 0 13.1712V9.95342C0 4.62211 4.26339 0.300232 9.52255 0.300232H13.7548C19.014 0.300232 23.2773 4.62211 23.2773 9.95342V13.1712C23.2773 15.5406 21.3825 17.4615 19.0451 17.4615C18.4608 17.4615 17.987 16.9813 17.987 16.3889C17.987 15.7965 18.4608 15.3163 19.0451 15.3163C20.2138 15.3163 21.1612 14.3559 21.1612 13.1712V9.95342C21.1612 5.80685 17.8453 2.44539 13.7548 2.44539H9.52255Z" fill="#696969"/>
<path fill-rule="evenodd" clip-rule="evenodd" d="M7.90328 9.3846C8.21318 9.07045 8.71562 9.07045 9.02552 9.3846L10.0836 10.4572C10.3935 10.7713 10.3935 11.2807 10.0836 11.5948C9.77368 11.909 9.27124 11.909 8.96134 11.5948L8.4644 11.0911L7.96746 11.5948C7.65756 11.909 7.15512 11.909 6.84522 11.5948C6.53532 11.2807 6.53532 10.7713 6.84522 10.4572L7.90328 9.3846Z" fill="#696969"/>
<path fill-rule="evenodd" clip-rule="evenodd" d="M14.2517 9.3846C14.5616 9.07045 15.064 9.07045 15.3739 9.3846L16.432 10.4572C16.7419 10.7713 16.7419 11.2807 16.432 11.5948C16.1221 11.909 15.6196 11.909 15.3097 11.5948L14.8128 11.0911L14.3158 11.5948C14.006 11.909 13.5035 11.909 13.1936 11.5948C12.8837 11.2807 12.8837 10.7713 13.1936 10.4572L14.2517 9.3846Z" fill="#696969"/>
</svg>
