<svg width="24" height="24" viewBox="0 0 24 24" fill="none" xmlns="http://www.w3.org/2000/svg">
<path d="M9.87892 12.1213C11.0505 10.9497 12.95 10.9497 14.1216 12.1213L17.3023 15.3021C19.2674 17.2671 17.7351 20.6171 14.9634 20.4155L12.2178 20.2158C12.073 20.2053 11.9275 20.2053 11.7826 20.2158L9.03708 20.4155C6.26538 20.6171 4.73309 17.2672 6.69816 15.3021L9.87892 12.1213Z" stroke="#696969" stroke-width="2"/>
<path d="M17.0002 6.5C17.0002 7.2821 16.7723 7.94842 16.4543 8.39364C16.1349 8.84077 15.7838 9 15.5002 9C15.2167 9 14.8656 8.84077 14.5462 8.39364C14.2282 7.94842 14.0002 7.2821 14.0002 6.5C14.0002 5.7179 14.2282 5.05158 14.5462 4.60636C14.8656 4.15923 15.2167 4 15.5002 4C15.7838 4 16.1349 4.15923 16.4543 4.60636C16.7723 5.05158 17.0002 5.7179 17.0002 6.5Z" stroke="#696969" stroke-width="2"/>
<path d="M21.6405 11.9331C21.3084 13.1724 20.3167 13.6489 19.6739 13.4767C19.0312 13.3044 18.4106 12.3959 18.7427 11.1566C19.0748 9.91729 20.0664 9.44074 20.7092 9.61297C21.352 9.78521 21.9725 10.6937 21.6405 11.9331Z" stroke="#696969" stroke-width="2"/>
<path d="M5.64022 11.1565C5.30815 9.91724 4.31648 9.44069 3.6737 9.61292C3.03092 9.78516 2.41037 10.6937 2.74245 11.933C3.07452 13.1723 4.06619 13.6489 4.70897 13.4766C5.35175 13.3044 5.9723 12.3959 5.64022 11.1565Z" stroke="#696969" stroke-width="2"/>
<path d="M10.0002 6.5C10.0002 7.2821 9.77229 7.94842 9.45428 8.39364C9.13489 8.84077 8.78383 9 8.50024 9C8.21666 9 7.86559 8.84077 7.54621 8.39364C7.2282 7.94842 7.00024 7.2821 7.00024 6.5C7.00024 5.7179 7.2282 5.05158 7.54621 4.60636C7.86559 4.15923 8.21666 4 8.50024 4C8.78383 4 9.13489 4.15923 9.45428 4.60636C9.77229 5.05158 10.0002 5.7179 10.0002 6.5Z" stroke="#696969" stroke-width="2"/>
</svg>
