<svg width="24" height="24" viewBox="0 0 24 24" fill="none" xmlns="http://www.w3.org/2000/svg">
<path d="M9.87892 12.1213C11.0505 10.9497 12.95 10.9497 14.1216 12.1213L17.3023 15.3021C19.2674 17.2671 17.7351 20.6171 14.9634 20.4155L12.2178 20.2158C12.073 20.2053 11.9275 20.2053 11.7826 20.2158L9.03708 20.4155C6.26538 20.6171 4.73309 17.2672 6.69816 15.3021L9.87892 12.1213Z" stroke="#696969" stroke-width="1.5"/>
<path d="M17.2502 6.5C17.2502 7.3282 17.0093 8.04669 16.6577 8.53895C16.3051 9.03264 15.8855 9.25 15.5002 9.25C15.115 9.25 14.6954 9.03264 14.3428 8.53895C13.9912 8.04669 13.7502 7.3282 13.7502 6.5C13.7502 5.6718 13.9912 4.95331 14.3428 4.46105C14.6954 3.96736 15.115 3.75 15.5002 3.75C15.8855 3.75 16.3051 3.96736 16.6577 4.46105C17.0093 4.95331 17.2502 5.6718 17.2502 6.5Z" stroke="#696969" stroke-width="1.5"/>
<path d="M21.882 11.9978C21.5257 13.3273 20.4247 13.9367 19.6092 13.7182C18.7937 13.4996 18.1449 12.4215 18.5012 11.0919C18.8575 9.76231 19.9584 9.15298 20.7739 9.37149C21.5894 9.59 22.2382 10.6682 21.882 11.9978Z" stroke="#696969" stroke-width="1.5"/>
<path d="M5.88171 11.0918C5.52545 9.76226 4.42449 9.15293 3.60899 9.37144C2.79349 9.58995 2.14471 10.6681 2.50097 11.9977C2.85723 13.3273 3.95818 13.9366 4.77368 13.7181C5.58918 13.4996 6.23797 12.4214 5.88171 11.0918Z" stroke="#696969" stroke-width="1.5"/>
<path d="M10.2502 6.5C10.2502 7.3282 10.0093 8.04669 9.65771 8.53895C9.30507 9.03264 8.88552 9.25 8.50024 9.25C8.11497 9.25 7.69542 9.03264 7.34278 8.53895C6.99117 8.04669 6.75024 7.3282 6.75024 6.5C6.75024 5.6718 6.99117 4.95331 7.34278 4.46105C7.69542 3.96736 8.11497 3.75 8.50024 3.75C8.88552 3.75 9.30507 3.96736 9.65771 4.46105C10.0093 4.95331 10.2502 5.6718 10.2502 6.5Z" stroke="#696969" stroke-width="1.5"/>
</svg>
