<svg width="24" height="24" viewBox="0 0 24 24" fill="none" xmlns="http://www.w3.org/2000/svg">
<circle cx="12" cy="12" r="3" stroke="#696969" stroke-width="2"/>
<path d="M21 16L21 9.60555C21 8.16654 19.8335 7 18.3944 7C17.5233 7 16.7097 6.56461 16.2265 5.83975L15.8906 5.3359C15.3342 4.5013 14.3975 4 13.3944 4L10.6056 4C9.60249 4 8.6658 4.5013 8.1094 5.3359L7.7735 5.83975C7.29026 6.56461 6.47673 7 5.60555 7C4.16655 7 3 8.16654 3 9.60555L3 16C3 17.6569 4.34314 19 6 19L18 19C19.6569 19 21 17.6569 21 16Z" stroke="#696969" stroke-width="2"/>
</svg>
