<svg width="24" height="24" viewBox="0 0 24 24" fill="none" xmlns="http://www.w3.org/2000/svg">
<path fill-rule="evenodd" clip-rule="evenodd" d="M5.96162 13.9047C1.78525 12.9767 1.78525 7.02333 5.96162 6.09524L19.7831 3.0238C20.0792 2.95801 20.3892 3.03015 20.6258 3.21995C20.8624 3.40975 21 3.69667 21 3.99999L21 16C21 16.3033 20.8624 16.5902 20.6258 16.78C20.3892 16.9698 20.0792 17.042 19.7831 16.9762L5.96162 13.9047ZM6.39548 8.04762C4.3073 8.51166 4.3073 11.4883 6.39548 11.9524L19 14.7534L19 5.24661L6.39548 8.04762Z" fill="#696969"/>
<path fill-rule="evenodd" clip-rule="evenodd" d="M8 13C8.55228 13 9 13.4477 9 14V18C9 18.5581 9.6054 18.9058 10.0875 18.6246L13.4961 16.6362C13.9732 16.3579 14.5855 16.5191 14.8638 16.9961C15.1421 17.4732 14.9809 18.0855 14.5039 18.3638L11.0952 20.3522C9.27983 21.4111 7 20.1017 7 18V14C7 13.4477 7.44772 13 8 13Z" fill="#696969"/>
</svg>
