<svg width="24" height="24" viewBox="0 0 24 24" fill="none" xmlns="http://www.w3.org/2000/svg">
<path fill-rule="evenodd" clip-rule="evenodd" d="M6.01586 13.6607C2.10051 12.7906 2.10051 7.20937 6.01586 6.33929L19.8373 3.26785C20.0594 3.2185 20.2919 3.27262 20.4693 3.41496C20.6468 3.55731 20.75 3.7725 20.75 3.99999L20.75 16C20.75 16.2275 20.6468 16.4427 20.4693 16.585C20.2919 16.7274 20.0594 16.7815 19.8373 16.7321L6.01586 13.6607ZM6.34125 7.80357C3.99204 8.32562 3.99204 11.6744 6.34125 12.1964L19.25 15.065L19.25 4.93496L6.34125 7.80357Z" fill="#696969"/>
<path fill-rule="evenodd" clip-rule="evenodd" d="M8 13.25C8.41421 13.25 8.75 13.5858 8.75 14V18C8.75 18.751 9.5647 19.219 10.2134 18.8406L13.6221 16.8522C13.9799 16.6435 14.4391 16.7643 14.6478 17.1221C14.8565 17.4799 14.7357 17.9391 14.3779 18.1478L10.9692 20.1362C9.32052 21.098 7.25 19.9087 7.25 18V14C7.25 13.5858 7.58579 13.25 8 13.25Z" fill="#696969"/>
</svg>
