<svg width="24" height="24" viewBox="0 0 24 24" fill="none" xmlns="http://www.w3.org/2000/svg">
<path d="M9.87892 12.1213C11.0505 10.9497 12.95 10.9497 14.1216 12.1213L17.3023 15.3021C19.2674 17.2671 17.7351 20.6171 14.9634 20.4155L12.2178 20.2158C12.073 20.2053 11.9275 20.2053 11.7826 20.2158L9.03708 20.4155C6.26538 20.6171 4.73309 17.2672 6.69816 15.3021L9.87892 12.1213Z" fill="#D8D8D8"/>
<ellipse cx="15.5002" cy="6.5" rx="2.5" ry="3.5" fill="#D8D8D8"/>
<ellipse cx="20.1916" cy="11.5448" rx="2.5" ry="3" transform="rotate(15 20.1916 11.5448)" fill="#D8D8D8"/>
<ellipse cx="2.5" cy="3" rx="2.5" ry="3" transform="matrix(0.965926 -0.258819 -0.258819 -0.965926 2.55298 15.0896)" fill="#D8D8D8"/>
<ellipse cx="8.50024" cy="6.5" rx="2.5" ry="3.5" fill="#D8D8D8"/>
</svg>
